HIERARCHY
ROOT root
{
	OFFSET	0	13.1	24.9
	CHANNELS 6  Xposition Yposition Zposition Xrotation Yrotation Zrotation
	JOINT spine_1
	{
		OFFSET	0	9.99999	0
		CHANNELS 3  Xrotation Yrotation Zrotation
		JOINT spine_2
		{
			OFFSET	0	112	-10
			CHANNELS 3  Xrotation Yrotation Zrotation
			JOINT spine_3
			{
				OFFSET	0	206.5	19.3
				CHANNELS 3  Xrotation Yrotation Zrotation
				JOINT spine_4
				{
					OFFSET	0	110.4	14.6
					CHANNELS 3  Xrotation Yrotation Zrotation
					JOINT neck_1
					{
						OFFSET	0	71.8	-50.3
						CHANNELS 3  Xrotation Yrotation Zrotation
						JOINT neck_2
						{
							OFFSET	0	86.2	-25.8
							CHANNELS 3  Xrotation Yrotation Zrotation
							JOINT head_ee
							{
								OFFSET	0	179.8	-8.7
								CHANNELS 3  Xrotation Yrotation Zrotation
								End Site
								{
									OFFSET	1	0	0
								}
							}
						}
					}
					JOINT left_clavicle
					{
						OFFSET	-43.2	22.4	-70.8
						CHANNELS 3  Xrotation Yrotation Zrotation
						JOINT left_shoulder
						{
							OFFSET	-93.9	-5.79999	48.7
							CHANNELS 3  Xrotation Yrotation Zrotation
							JOINT left_elbow
							{
								OFFSET	-291.4	-30.8	15.2
								CHANNELS 3  Xrotation Yrotation Zrotation
								JOINT left_lowarm_twist
								{
									OFFSET	-110.7	-3.89999	13.6
									CHANNELS 3  Xrotation Yrotation Zrotation
									JOINT left_hand
									{
										OFFSET	-110.7	-3.89999	13.6
										CHANNELS 3  Xrotation Yrotation Zrotation
										JOINT left_ee
										{
											OFFSET	-80.8	-5.10001	12.1
											CHANNELS 3  Xrotation Yrotation Zrotation
											End Site
											{
												OFFSET	1	0	0
											}
										}
									}
								}
							}
						}
					}
					JOINT right_clavicle
					{
						OFFSET	43.2	22.4	-70.8
						CHANNELS 3  Xrotation Yrotation Zrotation
						JOINT right_shoulder
						{
							OFFSET	93.9	-5.79999	48.7
							CHANNELS 3  Xrotation Yrotation Zrotation
							JOINT right_elbow
							{
								OFFSET	291.4	-30.8	15.2
								CHANNELS 3  Xrotation Yrotation Zrotation
								JOINT right_lowarm_twist
								{
									OFFSET	110.7	-3.89999	13.6
									CHANNELS 3  Xrotation Yrotation Zrotation
									JOINT right_hand
									{
										OFFSET	110.7	-3.89999	13.6
										CHANNELS 3  Xrotation Yrotation Zrotation
										JOINT right_ee
										{
											OFFSET	80.8	-5.10001	12.1
											CHANNELS 3  Xrotation Yrotation Zrotation
											End Site
											{
												OFFSET	1	0	0
											}
										}
									}
								}
							}
						}
					}
				}
			}
		}
	}
	JOINT left_hip
	{
		OFFSET	-82.8	-127.5	0.300001
		CHANNELS 3  Xrotation Yrotation Zrotation
		JOINT left_knee
		{
			OFFSET	-28.2	-396.7	2.2
			CHANNELS 3  Xrotation Yrotation Zrotation
			JOINT left_ankle
			{
				OFFSET	-11.7	-411.3	35.4
				CHANNELS 3  Xrotation Yrotation Zrotation
				JOINT left_toes
				{
					OFFSET	0	-60	-88.6
					CHANNELS 3  Xrotation Yrotation Zrotation
					JOINT left_foot_ee
					{
						OFFSET	-22.5	-16.5	-42.2
						CHANNELS 3  Xrotation Yrotation Zrotation
						End Site
						{
							OFFSET	1	0	0
						}
					}
				}
			}
		}
	}
	JOINT right_hip
	{
		OFFSET	82.8	-127.5	0.300001
		CHANNELS 3  Xrotation Yrotation Zrotation
		JOINT right_knee
		{
			OFFSET	28.2	-396.7	2.2
			CHANNELS 3  Xrotation Yrotation Zrotation
			JOINT right_ankle
			{
				OFFSET	11.7	-411.3	35.4
				CHANNELS 3  Xrotation Yrotation Zrotation
				JOINT right_toes
				{
					OFFSET	0	-60	-88.6
					CHANNELS 3  Xrotation Yrotation Zrotation
					JOINT right_foot_ee
					{
						OFFSET	22.5	-16.5	-42.2
						CHANNELS 3  Xrotation Yrotation Zrotation
						End Site
						{
							OFFSET	1	0	0
						}
					}
				}
			}
		}
	}
}
MOTION
Frames: 15
Frame Time: 0.02
2204.34 675.87 -528.372 77.7665 -85.3731 84.6463 -1.73651 -0.445344 -3.42696 -1.73 -0.226508 -3.44832 -1.71008 0.605685 -3.40231 -1.72623 0.0610863 -3.4552 -24.167 4.51835 8.01705 -24.0338 5.23611 9.63219 -0.0 0.0 -0.0 5.73841 13.2561 11.0786 -29.133 -31.1071 66.8885 0.324507 -9.13245 0.0259168 -74.0539 -7.06398 5.3202 4.15847 -7.63431 25.6665 -0.0 0.0 -0.0 6.97678 20.4137 -12.6939 12.0752 11.5181 -59.7631 2.84289 54.6117 -1.46791 67.7474 2.51004 7.7742 3.36087 -29.0189 -31.1956 0.0 0.0 0.0 37.5653 47.6707 -18.8138 0.233834 -0.00969931 -0.0345728 6.13008 -19.4804 -0.995548 -8.36793 0.0 0.0 -0.0 0.0 -0.0 -30.815 15.4656 -7.04296 -0.0943374 -0.00387318 -0.0139589 34.0664 -13.2231 4.34421 -27.3737 0.0 0.0 0.0 0.0 0.0 
2225.12 685.494 -536.328 70.5725 -86.041 77.3962 -1.41894 -0.643055 -3.39369 -1.41264 -0.425933 -3.42767 -1.38108 0.387035 -3.43228 -1.39748 -0.159553 -3.45032 -22.3582 4.95057 7.44155 -22.2597 6.08691 9.14981 -0.0 0.0 -0.0 6.01015 12.6636 11.5558 -28.2646 -31.3837 67.0883 0.307982 -8.67466 0.0233591 -73.0634 -6.93738 5.31922 3.8999 -6.38073 24.3255 -0.0 0.0 -0.0 6.30743 18.2986 -11.4059 9.07459 13.4241 -60.7317 2.84878 54.6676 -1.47272 66.8667 2.42189 7.70352 3.26398 -29.2663 -30.5971 0.0 0.0 0.0 36.6004 47.5351 -18.2224 -1.23343 0.0488182 0.182988 5.97158 -20.5908 -0.980465 -6.85762 0.0 0.0 -0.0 0.0 -0.0 -30.8531 15.3998 -6.47185 0.141215 0.00584054 0.0208835 27.4331 -13.9162 3.63855 -24.66 0.0 0.0 0.0 0.0 0.0 
2243.63 691.342 -550.785 65.4255 -86.7391 72.3063 -1.23427 -0.679461 -3.42303 -1.22787 -0.460402 -3.45926 -1.19415 0.349515 -3.47221 -1.21092 -0.202899 -3.48383 -21.2626 4.22497 4.99884 -21.2404 5.72494 6.4855 -0.0 0.0 -0.0 6.75795 13.1553 12.8135 -27.6173 -31.5615 66.182 0.311427 -8.77017 0.0238815 -72.9753 -6.92613 5.31903 2.81601 1.11287 19.6199 -0.0 0.0 -0.0 5.59029 13.3278 -10.2192 8.43056 14.073 -61.8543 2.90909 55.2315 -1.52209 66.3671 2.37237 7.66283 2.53839 -29.5207 -26.0707 0.0 0.0 0.0 35.2543 47.2262 -16.9221 -2.77581 0.104296 0.413189 9.06925 -22.5575 -1.50062 -5.1413 0.0 0.0 -0.0 0.0 -0.0 -30.495 15.3059 -5.59986 1.00535 0.0427026 0.148363 17.7414 -16.6145 2.4794 -23.9273 0.0 0.0 0.0 0.0 0.0 
2260.77 693.739 -556.801 66.8183 -87.0963 73.7404 -1.15743 -0.579518 -3.44704 -1.15089 -0.359136 -3.47688 -1.12345 0.448019 -3.46656 -1.1402 -0.104736 -3.49379 -22.0706 4.33341 4.93518 -22.0592 6.03713 6.53363 -0.0 0.0 -0.0 7.21222 12.2809 13.6429 -27.1619 -31.8848 65.1007 0.315751 -8.89001 0.0245452 -72.8742 -6.9132 5.31879 2.47249 2.38411 17.6964 -0.0 0.0 -0.0 5.01667 10.7202 -9.17649 7.32409 14.8624 -62.7126 2.88803 55.0364 -1.50481 66.2011 2.356 7.64922 2.69627 -29.8573 -27.0993 0.0 0.0 0.0 33.8815 46.181 -15.9657 -3.07251 0.114256 0.457634 8.24222 -24.2464 -1.39307 -4.40875 0.0 0.0 -0.0 0.0 -0.0 -30.1848 14.8507 -4.98601 0.831009 0.0351103 0.122688 14.8402 -18.5415 2.11032 -22.8106 0.0 0.0 0.0 0.0 0.0 
2287.64 703.083 -566.119 59.6441 -87.494 67.1236 -0.942724 -0.663551 -3.72335 -0.935113 -0.425452 -3.75796 -0.901002 0.433327 -3.75706 -0.920657 -0.165031 -3.77834 -20.4472 3.14616 3.32916 -20.443 4.40295 4.42492 -0.0 0.0 -0.0 8.48951 12.9039 15.8283 -28.2683 -31.2486 62.3082 0.311526 -8.77291 0.0238966 -72.7106 -6.89229 5.31834 2.06651 4.24473 15.5966 -0.0 0.0 -0.0 4.45758 7.06391 -8.24304 4.98952 16.6742 -63.0 2.87418 54.907 -1.49347 64.3477 2.17591 7.49403 2.29838 -29.8135 -24.6713 0.0 0.0 0.0 32.2141 46.8365 -15.7943 -3.36347 0.123798 0.501267 9.81274 -26.8726 -1.69854 -3.33648 0.0 0.0 -0.0 0.0 -0.0 -30.1037 14.9975 -4.70208 0.996697 0.0423241 0.147089 7.07487 -20.6099 1.04017 -22.6596 0.0 0.0 0.0 0.0 0.0 
2309.42 704.296 -571.197 68.877 -86.9179 76.8369 -0.90813 -0.59092 -3.96183 -0.899463 -0.337826 -3.99134 -0.869253 0.569455 -3.96497 -0.891181 -0.0633634 -4.00509 -20.6677 3.07251 3.95227 -20.6456 3.96536 4.98172 -0.0 0.0 -0.0 9.00035 11.5176 16.8661 -28.0581 -31.5251 61.5159 0.360057 -10.1132 0.0318596 -72.0351 -6.80596 5.31588 1.77948 5.82804 14.2366 -0.0 0.0 -0.0 3.45928 5.76851 -6.29566 3.44071 17.2542 -63.7023 2.81186 54.3145 -1.44266 63.9528 2.1382 7.46023 2.03948 -29.7478 -23.1151 0.0 0.0 0.0 28.6153 46.6042 -15.7807 0.355324 -0.0147943 -0.05252 10.0421 -30.4518 -1.81869 -1.78233 0.0 0.0 -0.0 0.0 -0.0 -28.2789 15.5698 -4.89526 -5.5951 -0.189596 -0.837412 2.35677 -22.1376 0.353092 -22.7049 0.0 0.0 0.0 0.0 0.0 
2322.94 711.732 -572.424 69.6062 -86.7687 78.2549 -0.866744 -0.606769 -4.30461 -0.8565 -0.331889 -4.33442 -0.823724 0.649279 -4.29842 -0.849496 -0.0370577 -4.34693 -20.1984 2.61147 4.34858 -20.1555 2.84169 5.13303 -0.0 0.0 -0.0 9.44024 11.6154 17.6517 -26.9179 -32.3877 59.9594 0.442785 -12.3717 0.0479914 -72.0885 -6.81278 5.31611 1.43052 8.94248 13.0522 -0.0 0.0 -0.0 2.9954 3.89138 -5.49901 3.29953 16.7676 -64.3409 2.59956 52.1601 -1.27255 63.201 2.06705 7.39516 1.65015 -28.8838 -20.6293 0.0 0.0 0.0 25.6047 43.2378 -14.8168 3.10152 -0.14009 -0.455221 8.16942 -29.6349 -1.47492 -3.05324 0.0 0.0 -0.0 0.0 -0.0 -26.0426 12.4797 -5.67454 -10.5677 -0.288812 -1.59378 0.2604 -22.4033 0.0392493 -22.1878 0.0 0.0 0.0 0.0 0.0 
2339.36 712.966 -573.991 73.4521 -87.0436 82.9773 -0.858632 -0.469684 -4.74892 -0.846106 -0.166897 -4.76913 -0.823486 0.908452 -4.68497 -0.854068 0.158027 -4.76943 -20.6019 3.03901 6.77757 -20.48 2.49016 7.58162 -0.0 0.0 -0.0 9.84416 11.2525 18.4288 -25.9107 -33.1037 58.6639 0.513117 -14.2618 0.0641936 -71.7636 -6.77126 5.3146 1.0096 11.8739 11.3677 -0.0 0.0 -0.0 2.31078 1.99224 -4.29222 2.88017 17.1519 -64.9147 2.47705 50.8134 -1.17669 62.8214 2.03145 7.36195 1.2718 -28.2522 -18.2676 0.0 0.0 0.0 22.8625 41.3079 -13.9718 7.15552 -0.360056 -1.03787 8.47256 -29.959 -1.53443 -3.75514 0.0 0.0 -0.0 0.0 -0.0 -24.2682 10.7528 -6.16332 -15.2868 -0.321992 -2.31688 -2.81029 -22.5977 -0.426669 -21.8609 0.0 0.0 0.0 0.0 0.0 
2355.24 716.257 -577.245 72.8879 -86.9876 82.4905 -0.783567 -0.501941 -4.78576 -0.770852 -0.196753 -4.80794 -0.745642 0.881571 -4.73069 -0.776837 0.124285 -4.81035 -20.2268 3.49369 8.64112 -20.0228 2.38129 9.48162 -0.0 0.0 -0.0 10.2091 9.87815 19.2639 -24.8759 -33.7845 57.6259 0.54618 -15.1397 0.0725841 -71.5296 -6.74136 5.31336 0.795994 13.8637 10.7241 -0.0 0.0 -0.0 1.50055 -0.0525718 -2.89551 1.42753 18.8569 -65.4553 2.38521 49.7502 -1.10605 62.5296 2.00424 7.33627 1.05411 -28.0596 -16.9598 0.0 0.0 0.0 20.9833 39.8691 -13.4835 7.10352 -0.356974 -1.03049 9.37254 -29.7373 -1.68591 -3.88206 0.0 0.0 -0.0 0.0 -0.0 -23.1208 9.32249 -6.22008 -18.4309 -0.311012 -2.79911 -4.41435 -22.1209 -0.67084 -21.5917 0.0 0.0 0.0 0.0 0.0 
2366.65 721.561 -581.572 68.9399 -87.2099 79.2313 -0.671599 -0.580444 -5.12755 -0.657016 -0.253431 -5.154 -0.62454 0.892936 -5.08257 -0.660561 0.0801464 -5.15959 -19.5307 4.04665 9.99184 -19.2568 2.63963 10.9246 -0.0 0.0 -0.0 10.4855 9.75146 19.8001 -22.9925 -34.2885 57.7025 0.613384 -16.9017 0.0911335 -70.9798 -6.67113 5.30998 0.240719 16.6125 8.25823 -0.0 0.0 -0.0 1.20068 -1.19911 -2.43013 0.613556 17.7002 -65.2311 2.38213 49.7137 -1.10369 62.5398 2.00519 7.33717 0.901157 -27.3376 -15.87 0.0 0.0 0.0 19.7589 37.9486 -14.0953 7.18721 -0.361937 -1.04236 14.2845 -30.2722 -2.52958 -4.52913 0.0 0.0 -0.0 0.0 -0.0 -19.5075 8.50798 -6.79436 -22.652 -0.25472 -3.4442 -9.48751 -24.9677 -1.47256 -22.3048 0.0 0.0 0.0 0.0 0.0 
2381.53 717.511 -584.798 107.36 -88.3007 118.671 -0.398201 -0.803949 -5.15296 -0.383561 -0.474877 -5.19353 -0.331203 0.658333 -5.17353 -0.368495 -0.165842 -5.2125 -16.3482 5.43514 10.5277 -16.0526 4.40678 11.7763 -0.0 0.0 -0.0 10.5735 6.25561 20.3534 -21.1792 -32.8818 57.9572 0.627599 -17.2703 0.09531 -70.2945 -6.58361 5.3048 -0.0400901 18.4433 7.23527 -0.0 0.0 -0.0 0.843254 -1.80198 -1.81182 -0.617007 17.943 -65.3387 2.319 48.9534 -1.0558 62.4174 1.99381 7.32636 0.771893 -26.9914 -15.022 0.0 0.0 0.0 21.1144 37.1623 -15.695 5.81691 -0.282858 -0.847184 17.9376 -29.9917 -3.10425 -5.05231 0.0 0.0 -0.0 0.0 -0.0 -16.5898 7.67436 -6.80946 -27.1119 -0.143807 -4.11947 -12.1577 -24.8174 -1.8916 -22.8259 0.0 0.0 0.0 0.0 0.0 
2395.93 720.672 -582.468 153.321 -88.0335 164.588 -0.194985 -0.821074 -4.73738 -0.182653 -0.518311 -4.7799 -0.132029 0.509472 -4.78085 -0.163823 -0.251069 -4.80131 -15.5636 5.83744 10.0941 -15.2992 5.27384 11.4646 -0.0 0.0 -0.0 10.4338 4.8376 20.2084 -20.1371 -31.8811 56.416 0.618299 -17.0293 0.0925678 -69.8641 -6.52868 5.30102 -0.560177 19.7719 4.63068 -0.0 0.0 -0.0 0.00100083 -3.61621 -0.432175 -1.6555 19.1138 -67.4243 2.2549 48.1571 -1.00776 62.4395 1.99586 7.32831 0.639481 -27.5527 -14.4395 0.0 0.0 0.0 22.3284 36.2804 -17.1106 3.19933 -0.144909 -0.469453 20.5541 -29.0534 -3.46216 -5.32859 0.0 0.0 -0.0 0.0 -0.0 -12.3688 6.39578 -7.23159 -31.5966 0.020393 -4.78798 -15.3747 -27.098 -2.42915 -24.9897 0.0 0.0 0.0 0.0 0.0 
2407.35 726.364 -581.724 166.374 -87.6933 177.567 -0.0739373 -0.846813 -4.48495 -0.0629246 -0.560008 -4.52962 -0.0122544 0.405742 -4.546 -0.0409429 -0.31654 -4.55307 -15.5883 5.28684 8.11381 -15.4269 5.38452 9.42503 -0.0 0.0 -0.0 10.4168 3.42068 20.2909 -19.7725 -31.1559 54.8787 0.741205 -20.1618 0.131775 -69.6648 -6.50325 5.29912 -0.921695 20.4784 2.77781 -0.0 0.0 -0.0 -1.33013 -6.23063 1.66661 -2.06474 20.4476 -69.8794 2.17921 47.1837 -0.951795 62.1398 1.96809 7.30174 0.504728 -28.027 -13.8268 0.0 0.0 0.0 21.3981 36.2533 -17.2905 3.14474 -0.142216 -0.461511 21.3566 -28.4333 -3.55268 -5.98615 0.0 0.0 -0.0 0.0 -0.0 -8.36808 5.30525 -7.70494 -34.4685 0.152862 -5.20867 -18.1792 -29.5073 -2.92106 -27.2475 0.0 0.0 0.0 0.0 0.0 
2425.31 728.939 -580.289 175.6 -86.3628 -172.434 0.0902431 -0.845588 -4.40421 0.100854 -0.563908 -4.44897 0.150347 0.3722 -4.46905 0.122644 -0.337549 -4.4718 -14.8342 5.86051 8.05518 -14.6833 6.39583 9.51585 -0.0 0.0 -0.0 10.5148 2.48881 20.5605 -19.3191 -30.74 53.4675 0.737194 -20.0614 0.130396 -70.0554 -6.5531 5.30275 -1.32237 21.3067 0.781783 -0.0 0.0 -0.0 -2.11733 -8.67414 2.69375 -2.8248 21.2862 -71.5933 1.96612 44.2393 -0.79921 61.0451 1.86785 7.20349 0.262462 -28.2407 -12.5386 0.0 0.0 0.0 21.5858 35.6313 -19.3018 2.28821 -0.100968 -0.336577 23.6782 -28.1396 -3.86954 -5.79249 0.0 0.0 -0.0 0.0 -0.0 -5.31912 4.24312 -7.91034 -38.7188 0.387275 -5.81809 -18.9533 -29.8606 -3.05388 -28.3377 0.0 0.0 0.0 0.0 0.0 
2442.06 729.445 -579.84 176.669 -84.8526 -171.09 0.352777 -0.676458 -4.32687 0.363101 -0.400025 -4.36106 0.398013 0.495847 -4.35122 0.371655 -0.196891 -4.37491 -16.286 5.37874 6.39652 -16.212 6.65809 7.89189 -0.0 0.0 -0.0 10.4603 2.27041 20.4648 -18.4746 -30.3034 52.1178 0.809029 -21.8393 0.156085 -70.7658 -6.64379 5.30847 -1.9385 21.9912 -2.49641 -0.0 0.0 -0.0 -2.76734 -9.37428 3.71619 -3.51465 21.6475 -72.3899 1.53482 37.2434 -0.517198 60.0352 1.77707 7.11118 -0.132728 -28.3365 -10.3799 0.0 0.0 0.0 20.789 34.7888 -20.6265 0.360877 -0.0150284 -0.05334 24.6464 -29.0893 -4.05009 -6.55424 0.0 0.0 -0.0 0.0 -0.0 -2.24777 3.44056 -8.35266 -41.722 0.579939 -6.23764 -20.3004 -29.4688 -3.2643 -28.9687 0.0 0.0 0.0 0.0 0.0 
